<?xml version="1.0" standalone="no"?>
<!DOCTYPE svg PUBLIC "-//W3C//DTD SVG 20010904//EN"
 "http://www.w3.org/TR/2001/REC-SVG-20010904/DTD/svg10.dtd">
<svg version="1.0" xmlns="http://www.w3.org/2000/svg"
 width="500.000000pt" height="500.000000pt" viewBox="0 0 500.000000 500.000000"
 preserveAspectRatio="xMidYMid meet">
<metadata>
Created by potrace 1.14, written by Peter Selinger 2001-2017
</metadata>
<g transform="translate(0.000000,500.000000) scale(0.100000,-0.100000)"
fill="#000000" stroke="none">
<path d="M0 2500 l0 -2500 2500 0 2500 0 0 2500 0 2500 -2500 0 -2500 0 0
-2500z m2963 894 c72 -43 209 -122 302 -177 94 -55 182 -107 197 -116 l28 -16
-2 -475 -3 -475 -2 425 -3 426 -128 74 c-212 123 -414 240 -469 272 l-53 30 0
-254 0 -253 60 -33 60 -33 0 -330 0 -329 -25 0 -25 0 -2 138 -2 137 -3 -132
c-3 -109 -6 -133 -18 -133 -12 0 -15 22 -15 130 0 80 -4 130 -10 130 -6 0 -10
-49 -10 -128 0 -71 -3 -131 -6 -134 -3 -3 -14 -4 -25 -1 -18 5 -19 15 -19 134
l0 129 -40 0 -40 0 0 -135 c0 -113 -2 -135 -15 -135 -13 0 -15 22 -15 135 l0
135 -65 0 -64 0 -3 -132 -3 -133 -107 -3 -108 -3 0 461 c0 294 -4 460 -10 460
-5 0 -150 -86 -322 -192 -172 -105 -350 -214 -395 -241 l-83 -51 0 -213 c0
-138 -4 -213 -10 -213 -7 0 -9 89 -8 261 l3 261 255 157 c140 86 372 228 515
316 143 88 323 198 400 246 77 48 143 88 148 88 4 1 67 -33 140 -75z m-933
-1404 c0 -16 -7 -20 -30 -20 l-30 0 0 -85 c0 -78 -2 -85 -20 -85 -18 0 -20 7
-20 85 l0 85 -30 0 c-23 0 -30 4 -30 20 0 18 7 20 80 20 73 0 80 -2 80 -20z
m148 -46 c19 -13 22 -24 22 -78 l0 -62 -60 -2 c-56 -2 -61 0 -72 24 -17 37 -1
56 57 69 42 9 46 12 32 23 -10 9 -27 11 -46 7 -36 -8 -51 11 -19 24 34 14 61
13 86 -5z m122 6 c0 -7 6 -7 19 0 32 16 60 12 86 -15 49 -48 17 -135 -49 -135
-17 0 -37 5 -44 12 -9 9 -12 3 -12 -31 0 -35 -3 -42 -17 -39 -15 3 -18 17 -21
97 -1 52 -1 100 2 108 6 15 36 18 36 3z m284 -3 c14 -10 20 -31 23 -79 l5 -66
-60 -1 c-47 0 -63 4 -77 19 -15 17 -16 24 -7 45 7 15 20 25 34 26 55 2 74 11
63 29 -5 8 -21 10 -46 6 -30 -5 -39 -3 -39 8 0 25 75 34 104 13z m160 7 c9 -3
16 -12 16 -19 0 -10 -10 -12 -35 -8 -50 8 -46 -17 5 -39 31 -13 40 -22 40 -40
0 -33 -18 -48 -56 -48 -42 0 -64 9 -64 25 0 9 11 12 40 8 51 -7 56 17 6 35
-42 15 -51 37 -31 68 15 24 46 31 79 18z m101 -41 c10 -27 21 -52 25 -57 5 -4
16 17 26 48 13 42 22 56 37 56 14 0 17 -5 12 -22 -14 -46 -68 -164 -83 -180
-15 -18 -57 -24 -66 -10 -7 12 10 35 22 28 5 -3 15 1 22 9 13 16 11 22 -29
123 -20 50 -20 52 -2 52 13 0 24 -14 36 -47z m250 34 c13 -10 19 -31 22 -79
l4 -65 -58 -1 c-65 -1 -77 4 -87 34 -12 39 14 56 93 63 11 1 11 4 0 17 -9 11
-22 14 -46 9 -25 -4 -33 -2 -33 9 0 25 75 35 105 13z m-217 -354 c-2 -10 -10
-18 -18 -18 -8 0 -16 8 -18 18 -2 12 3 17 18 17 15 0 20 -5 18 -17z m-1098
-13 c0 -18 -7 -20 -54 -20 -49 0 -54 -2 -58 -25 -5 -24 -3 -25 48 -25 41 0 54
-4 54 -15 0 -11 -12 -15 -49 -15 -44 0 -49 -2 -53 -25 -7 -33 -3 -35 59 -35
40 0 53 -4 53 -15 0 -12 -15 -15 -75 -15 l-75 0 0 105 0 105 75 0 c68 0 75 -2
75 -20z m308 -18 c2 -14 11 -22 23 -22 10 0 19 -7 19 -15 0 -10 -7 -15 -17
-13 -15 2 -19 -6 -21 -44 -3 -43 -1 -48 17 -48 12 0 21 -7 21 -15 0 -18 -50
-21 -68 -3 -7 7 -12 34 -12 60 0 26 -4 48 -10 48 -5 0 -10 7 -10 15 0 8 5 15
10 15 6 0 10 8 10 18 0 38 33 41 38 4z m-218 -21 c0 -5 13 -4 29 2 43 16 78
-3 86 -46 10 -53 2 -101 -17 -105 -14 -3 -17 6 -20 55 -3 52 -5 58 -26 61 -37
5 -52 -15 -52 -69 0 -42 -3 -49 -20 -49 -18 0 -20 7 -20 73 0 41 3 77 7 80 10
10 33 8 33 -2z m425 -16 c14 -13 25 -36 25 -50 0 -26 -1 -27 -55 -23 -47 4
-55 2 -53 -11 2 -11 16 -16 43 -17 59 -2 62 -3 41 -19 -28 -21 -82 -19 -106 5
-33 33 -30 85 6 118 33 29 69 28 99 -3z m105 8 c0 -15 1 -15 18 0 23 21 42 22
42 2 0 -9 -11 -20 -24 -24 -28 -11 -36 -29 -36 -82 0 -28 -4 -39 -15 -39 -12
0 -15 16 -15 80 0 64 3 80 15 80 8 0 15 -7 15 -17z m136 6 c4 -8 9 -8 17 0 29
29 105 -3 108 -46 5 -75 -23 -108 -83 -100 -38 5 -38 5 -38 -29 0 -27 -4 -34
-20 -34 -19 0 -20 7 -20 110 0 89 3 110 14 110 8 0 18 -5 22 -11z m214 1 c0
-7 6 -7 19 0 27 14 31 13 31 -8 0 -9 -10 -22 -22 -27 -19 -8 -24 -19 -26 -62
-3 -45 -6 -53 -23 -53 -17 0 -19 7 -19 73 0 41 3 77 7 80 10 11 33 8 33 -3z
m130 -70 c0 -73 -2 -80 -20 -80 -18 0 -20 7 -20 73 0 76 4 87 27 87 10 0 13
-20 13 -80z m144 74 c9 -3 16 -13 16 -21 0 -10 -8 -12 -34 -8 -48 10 -55 -11
-9 -30 54 -23 67 -50 37 -79 -26 -26 -104 -19 -104 10 0 11 9 13 40 8 52 -8
53 10 3 33 -43 21 -52 46 -27 74 17 19 49 24 78 13z m185 -11 c12 -10 23 -31
24 -48 2 -30 1 -30 -57 -35 -52 -4 -57 -7 -43 -19 11 -9 30 -12 52 -8 25 4 35
2 35 -8 0 -16 -22 -25 -61 -25 -35 0 -79 39 -79 70 0 26 25 77 42 83 27 11 67
6 87 -10z m155 11 c9 -3 16 -12 16 -19 0 -10 -10 -12 -35 -8 -27 4 -35 2 -35
-10 0 -8 12 -18 27 -22 53 -13 69 -47 37 -79 -25 -26 -104 -19 -104 9 0 10 12
13 40 12 47 -2 54 14 10 27 -18 5 -37 20 -43 33 -19 42 35 77 87 57z"/>
<path d="M2710 3295 c-58 -36 -151 -93 -207 -127 -57 -34 -103 -65 -103 -68 0
-3 40 -26 88 -52 48 -26 140 -77 205 -114 65 -37 120 -65 122 -62 3 3 4 114 3
246 l-3 241 -105 -64z"/>
<path d="M2609 2788 c-1 -24 -1 -61 -1 -82 -1 -31 -3 -36 -12 -25 -6 8 -19 20
-28 28 -17 13 -18 5 -18 -133 l0 -146 65 0 65 0 0 185 c0 117 -4 185 -10 185
-6 0 -10 -35 -10 -85 0 -47 -4 -85 -9 -85 -16 0 -21 30 -21 116 0 49 -4 84
-10 84 -5 0 -11 -19 -11 -42z"/>
<path d="M2710 2606 l0 -176 40 0 40 0 0 105 0 105 25 0 25 0 0 -105 c0 -77 3
-105 13 -105 9 0 11 26 9 105 -3 89 -1 105 12 105 13 0 16 -19 19 -107 3 -99
3 -97 3 20 l-1 128 -92 50 -93 50 0 -175z"/>
<path d="M2100 1850 c0 -23 38 -28 58 -8 20 20 14 28 -23 28 -28 0 -35 -4 -35
-20z"/>
<path d="M2316 1914 c-32 -31 -14 -84 29 -84 29 0 45 19 45 52 0 42 -45 62
-74 32z"/>
<path d="M2507 1863 c-19 -18 -6 -34 25 -31 44 4 53 38 10 38 -16 0 -32 -3
-35 -7z"/>
<path d="M3017 1863 c-19 -18 -6 -34 25 -31 44 4 53 38 10 38 -16 0 -32 -3
-35 -7z"/>
<path d="M2212 1508 c-21 -21 -13 -28 33 -28 25 0 45 4 45 8 0 15 -24 32 -45
32 -12 0 -26 -5 -33 -12z"/>
<path d="M2552 1508 c-7 -7 -12 -24 -12 -38 0 -31 17 -50 45 -50 44 0 61 52
27 83 -22 20 -43 22 -60 5z"/>
<path d="M3132 1508 c-21 -21 -13 -28 28 -28 28 0 40 4 40 14 0 25 -47 35 -68
14z"/>
</g>
</svg>
